# xmcd
#
# Track frame offsets:
#        150
#        16937
#        44874
#        65521
#
# Disc length: 1101 seconds
#
# Revision: 0
# Processed by: cddbd v1.5.1PL0 Copyright (c) Steve Scherf et al.
# Submitted via: ExactAudioCopy v0.95a5
#
DISCID=33044b04
DTITLE=Are You Gonna Go My Way  - Space Cowboy
DYEAR=2004
DGENRE=Club
TTITLE0=Are You Gonna Go My Way(Original)
TTITLE1=Are You Gonna Go My Way(Club Mix)
TTITLE2=Are You Gonna Go My Way(Miss Frenchie Remix)
TTITLE3=Transmission
EXTD=
EXTT0=
EXTT1=
EXTT2=
EXTT3=
PLAYORDER=
